External Loads File
version=1
nRows=46
nColumns=13
Range=5.000000e-03-10 seconds
endheader
time 	forceRightX 	forceRightY 	forceRightZ 	pointRightX 	pointRightY 	pointRightZ 	forceLeftX 	forceLeftY 	forceLeftZ 	pointLeftX 	pointLeftY 	pointLeftZ 		
5.005000 -100.655246 78.019061 -0.000000 0.324199 0.441232 -0.125898 103.452284 30.754060 -0.000000 0.117405 0.176256 -0.361978
5.010000 -87.463085 93.999625 -0.000000 0.330421 0.435401 -0.125640 81.895796 -7.745393 -0.000000 0.110383 0.181784 -0.361693
5.015000 -72.173647 114.990792 -0.000000 0.335996 0.429338 -0.125408 60.272692 -46.999381 -0.000000 0.103656 0.187802 -0.361370
5.020000 -54.915191 141.924668 -0.000000 0.340739 0.422614 -0.125144 38.183031 -87.268540 -0.000000 0.097327 0.194283 -0.361414
5.025000 -35.758097 175.388735 -0.000000 0.345052 0.415367 -0.124655 15.111226 -127.783731 -0.000000 0.091270 0.201199 -0.361024
5.030000 -16.476335 215.223992 -0.000000 0.348935 0.407997 -0.124130 -8.057841 -166.778744 -0.000000 0.088710 0.208520 -0.358489
5.035000 5.500618 261.042954 -0.000000 0.352267 0.400143 -0.123614 -33.414155 -201.780369 -0.000000 0.081888 0.216216 -0.360873
5.040000 26.838163 311.236189 -0.000000 0.355504 0.391706 -0.122485 -57.974601 -230.324910 -0.000000 0.078316 0.224256 -0.361084
5.045000 47.443077 364.035382 -0.000000 0.357952 0.382926 -0.122674 -80.701407 -250.408319 -0.000000 0.075322 0.232610 -0.361216
5.050000 66.746844 417.424740 -0.000000 0.360210 0.374069 -0.123167 -99.793168 -260.989856 -0.000000 0.072673 0.241245 -0.361389
5.055000 85.034991 469.403702 -0.000000 0.361980 0.364476 -0.123755 -113.854415 -261.951080 -0.000000 0.069992 0.250131 -0.360384
5.060000 101.871065 518.471151 -0.000000 0.363557 0.354218 -0.123756 -121.247919 -254.380970 -0.000000 0.067805 0.259236 -0.360328
5.065000 117.013603 563.558342 -0.000000 0.364705 0.343436 -0.123536 -121.117915 -240.094835 -0.000000 0.065971 0.268527 -0.360341
5.070000 129.781910 604.111939 -0.000000 0.365319 0.332591 -0.123895 -113.353975 -221.355764 -0.000000 0.064432 0.277971 -0.360365
5.075000 140.426508 639.765706 -0.000000 0.365490 0.321661 -0.123824 -99.171104 -200.150708 -0.000000 0.063328 0.287532 -0.360467
5.080000 150.324995 670.238562 -0.000000 0.365216 0.310160 -0.123331 -80.674209 -177.987621 -0.000000 0.062737 0.297173 -0.360665
5.085000 158.354212 696.106024 -0.000000 0.364548 0.298769 -0.123352 -59.420852 -156.262729 -0.000000 0.062766 0.306857 -0.360844
5.090000 163.858264 718.090797 -0.000000 0.363529 0.287872 -0.122830 -37.107120 -135.670534 -0.000000 0.063484 0.316542 -0.361178
5.095000 168.383745 736.538439 -0.000000 0.361927 0.276993 -0.123448 -15.459631 -116.389938 -0.000000 0.064924 0.326188 -0.361421
5.100000 171.931353 752.191539 -0.000000 0.359857 0.266315 -0.123462 4.629978 -98.584197 -0.000000 0.067027 0.335754 -0.361665
5.105000 174.766811 765.767723 -0.000000 0.357485 0.255835 -0.123505 22.580657 -82.346104 -0.000000 0.069814 0.345196 -0.361767
5.110000 177.438532 777.948295 -0.000000 0.354509 0.245570 -0.123678 38.040779 -67.772644 -0.000000 0.073353 0.354473 -0.361947
5.115000 181.827283 789.104997 -0.000000 0.350939 0.234817 -0.123726 50.756228 -55.082582 -0.000000 0.077513 0.363543 -0.362092
5.120000 184.987206 800.657629 -0.000000 0.346707 0.225054 -0.123689 60.923009 -44.214041 -0.000000 0.082291 0.372368 -0.362313
5.125000 189.410295 812.631099 -0.000000 0.341904 0.215464 -0.123625 68.338531 -35.415928 -0.000000 0.087720 0.380908 -0.362380
5.130000 195.496660 825.316835 -0.000000 0.336799 0.205970 -0.123207 72.933086 -28.838876 -0.000000 0.093809 0.389128 -0.362550
5.135000 204.635325 838.542160 -0.000000 0.330352 0.196919 -0.123478 74.516342 -24.737323 -0.000000 0.100483 0.396994 -0.362522
5.140000 215.530105 852.537570 -0.000000 0.323651 0.188380 -0.123240 72.894750 -23.096288 -0.000000 0.107838 0.404475 -0.362624
5.145000 229.321935 866.672988 -0.000000 0.316415 0.180129 -0.122915 67.761510 -24.021213 -0.000000 0.115862 0.411544 -0.362593
5.150000 245.940559 880.303046 -0.000000 0.308673 0.172145 -0.122636 58.882183 -27.355554 -0.000000 0.124504 0.418175 -0.362639
5.155000 265.455676 892.429327 -0.000000 0.299985 0.164795 -0.122643 46.116841 -32.764521 -0.000000 0.133632 0.424346 -0.362687
5.160000 285.389808 902.589238 -0.000000 0.291347 0.157953 -0.122333 29.594834 -39.654072 -0.000000 0.143199 0.430040 -0.362561
5.165000 307.458191 908.942607 -0.000000 0.282447 0.151637 -0.122074 9.502593 -47.574284 -0.000000 0.153707 0.435240 -0.363785
5.170000 328.191905 911.275991 -0.000000 0.273246 0.145824 -0.121859 -13.508450 -55.924963 -0.000000 0.164009 0.439933 -0.363436
5.175000 346.629507 908.669956 -0.000000 0.264188 0.140654 -0.121055 -38.634278 -64.297294 -0.000000 0.174441 0.444109 -0.362701
5.180000 364.755241 899.125962 -0.000000 0.254754 0.136093 -0.120842 -65.082681 -72.141450 -0.000000 0.185401 0.447760 -0.362804
5.185000 378.700444 883.102620 -0.000000 0.245425 0.132104 -0.120509 -91.485682 -79.174604 -0.000000 0.196166 0.450880 -0.362642
5.190000 389.348814 859.494306 -0.000000 0.235884 0.129117 -0.120331 -116.750823 -84.794124 -0.000000 0.206972 0.453464 -0.362449
5.195000 395.404768 828.420753 -0.000000 0.226429 0.126245 -0.120170 -139.602018 -88.554288 -0.000000 0.217701 0.455509 -0.362246
5.200000 395.866284 790.258370 -0.000000 0.217185 0.124146 -0.119874 -158.861543 -90.194058 -0.000000 0.228232 0.457011 -0.362278
5.205000 391.249559 744.966703 -0.000000 0.207933 0.122686 -0.119615 -173.743723 -89.435064 -0.000000 0.238604 0.457968 -0.362463
5.210000 381.126166 693.316530 -0.000000 0.198920 0.121770 -0.119273 -183.698830 -86.423087 -0.000000 0.248890 0.458379 -0.362629
5.215000 365.493054 636.287886 -0.000000 0.190024 0.121622 -0.118967 -188.577870 -81.451494 -0.000000 0.258797 0.458240 -0.362813
5.220000 344.540952 575.119534 -0.000000 0.181519 0.121954 -0.118331 -188.554829 -74.894791 -0.000000 0.268392 0.457550 -0.363635
5.225000 320.080940 510.244465 -0.000000 0.172863 0.122887 -0.118184 -184.247380 -66.555074 -0.000000 0.277809 0.456308 -0.363598
5.230000 291.674363 443.451147 -0.000000 0.164778 0.124430 -0.117883 -176.124630 -56.854083 -0.000000 0.286856 0.454510 -0.364016
